<svg xmlns="http://www.w3.org/2000/svg" width="27" height="27" viewBox="0 0 27 27"><path fill="#7fccbb" d="M23.94 21.57a2.55 2.55 0 0 1-2.54 2.56H5.13a2.55 2.55 0 0 1-2.54-2.56V10.62h3.96a7.29 7.29 0 0 0 6.72 10.06 7.29 7.29 0 0 0 6.71-10.06h3.96zM13.27 8.66a4.67 4.67 0 0 1 4.66 4.71c0 2.59-2.09 4.7-4.66 4.7a4.69 4.69 0 0 1-3.79-7.45 4.67 4.67 0 0 1 3.79-1.96zm9.6-5.58h.59v4.53l-4.48.01-.02-4.53zM5.13 0A5.16 5.16 0 0 0 0 5.17v16.4c0 2.85 2.3 5.17 5.13 5.17H21.4a5.16 5.16 0 0 0 5.13-5.17V5.17c0-2.85-2.3-5.17-5.13-5.17z"/></svg>