<svg id="Ebene_1" xmlns="http://www.w3.org/2000/svg" viewBox="0 0 16 16"><style>.st0{fill:#fff}</style><path class="st0" d="M0 1.9C0 1.4.2.9.6.5 1 .2 1.4 0 1.9 0s1 .2 1.4.6.6.8.6 1.4c0 .5-.2 1-.6 1.4-.4.3-.8.5-1.4.5-.5 0-1-.2-1.4-.6-.3-.4-.5-.9-.5-1.4zm.1 13.6V5.4c0-.1 0-.2.1-.3.1-.1.2-.1.3-.1h2.8c.1 0 .2 0 .3.1s.1.2.1.3v10.1c0 .1 0 .2-.1.3-.1.1-.2.1-.3.1H.5c-.1 0-.2 0-.3-.1-.1-.1-.1-.2-.1-.3zm5.2 0V5.4c0-.1 0-.2.1-.3.1-.1.2-.1.3-.1h2.8c.1 0 .1 0 .2.1s.1.1.1.2v.5c.7-.7 1.7-1 2.8-1 1.3 0 2.4.3 3.1 1s1.1 1.6 1.1 2.9v6.8c0 .1 0 .2-.1.3 0 .2-.1.2-.2.2h-2.9c-.1 0-.2 0-.3-.1-.1-.1-.1-.2-.1-.3V9.4c0-.5-.1-.9-.3-1.2-.2-.3-.6-.4-1.1-.4-.7 0-1.2.2-1.4.6-.2.4-.3 1-.3 1.7v5.4c0 .1 0 .2-.1.3-.1.1-.2.1-.3.1H5.8c-.1 0-.2 0-.3-.1-.2-.1-.2-.2-.2-.3z"/></svg>